<svg id="Layer_1" data-name="Layer 1" xmlns="http://www.w3.org/2000/svg" width="142.35" height="45.35" viewBox="0 0 142.35 45.35">
  <defs>
    <style>
      .cls-1 {
        fill: #8cc63f;
      }

      .cls-1, .cls-2 {
        stroke: #929497;
        stroke-miterlimit: 10;
        stroke-width: 0.35px;
      }

      .cls-2 {
        fill: #fff;
      }
    </style>
  </defs>
  <title>seal_PrivacyFeedback_en_m-new_Medium-color-corrected</title>
  <path class="cls-1" d="M142,22.5V40a5,5,0,0,1-5,5H5a5,5,0,0,1-5-5V22.5" transform="translate(0.18 0.18)"/>
  <path class="cls-2" d="M0,22.5V5A5,5,0,0,1,5,0H137a5,5,0,0,1,5,5V22.5" transform="translate(0.18 0.18)"/>
  <path d="M19.83,18.83A6.46,6.46,0,0,1,17.06,16a6.31,6.31,0,0,0,2.11-4.66C19.17,7.72,16,4.78,12,4.78S4.83,7.72,4.83,11.35,8,17.92,12,17.92a7.88,7.88,0,0,0,2.19-.31A8.33,8.33,0,0,0,19.83,18.83Z" transform="translate(0.18 0.18)"/>
  <g>
    <path d="M24.37,7.93h3a6.29,6.29,0,0,1,1.35.14,2.76,2.76,0,0,1,1.06.46,2.29,2.29,0,0,1,.7.84,3,3,0,0,1,.26,1.3,3,3,0,0,1-.26,1.27,2.52,2.52,0,0,1-.71.9,2.89,2.89,0,0,1-1.07.52,4.7,4.7,0,0,1-1.33.17H25.94v3.25H24.37Zm2.86,4.35c1.3,0,1.95-.54,1.95-1.61a1.29,1.29,0,0,0-.49-1.16,2.73,2.73,0,0,0-1.46-.32H25.94v3.09Z" transform="translate(0.18 0.18)"/>
    <path d="M37.21,16.78,35.3,13.32H34v3.46H32.38V7.93h3a5.86,5.86,0,0,1,1.29.14,2.82,2.82,0,0,1,1,.44,2.22,2.22,0,0,1,.68.8,2.76,2.76,0,0,1,.25,1.25,2.59,2.59,0,0,1-.48,1.63,2.63,2.63,0,0,1-1.28.9L39,16.78ZM34,12.07h1.26a2.17,2.17,0,0,0,1.39-.38,1.35,1.35,0,0,0,.48-1.13,1.15,1.15,0,0,0-.48-1.07,2.66,2.66,0,0,0-1.39-.3H34Z" transform="translate(0.18 0.18)"/>
    <path d="M40.49,7.93h1.57v8.85H40.49Z" transform="translate(0.18 0.18)"/>
    <path d="M43.12,7.93h1.67L46,12.38c.15.51.27,1,.39,1.44s.24.93.4,1.45h0c.15-.52.29-1,.4-1.45s.24-.93.37-1.44l1.23-4.45h1.61l-2.74,8.85H45.88Z" transform="translate(0.18 0.18)"/>
    <path d="M55.45,14.39h-3l-.69,2.39h-1.6l2.89-8.85h1.84l2.88,8.85H56.14Zm-.35-1.23-.32-1.09c-.14-.47-.28-1-.41-1.45s-.26-1-.38-1.47h-.06c-.12.5-.25,1-.38,1.48s-.26,1-.4,1.44l-.31,1.09Z" transform="translate(0.18 0.18)"/>
    <path d="M58.29,12.38a5.41,5.41,0,0,1,.32-1.94A4.28,4.28,0,0,1,59.48,9a3.69,3.69,0,0,1,1.3-.91,4,4,0,0,1,1.59-.31,3,3,0,0,1,1.46.34,4,4,0,0,1,1.06.78l-.88,1a2.77,2.77,0,0,0-.72-.54,2,2,0,0,0-.9-.19,2.23,2.23,0,0,0-1,.22,2.27,2.27,0,0,0-.78.64,2.79,2.79,0,0,0-.52,1,4.67,4.67,0,0,0-.18,1.34,3.91,3.91,0,0,0,.65,2.38,2.13,2.13,0,0,0,1.78.86,2.25,2.25,0,0,0,1-.23,3.26,3.26,0,0,0,.82-.65l.88,1a3.88,3.88,0,0,1-1.24.95,3.43,3.43,0,0,1-1.52.33,4.17,4.17,0,0,1-1.59-.3,3.56,3.56,0,0,1-1.27-.87,4.26,4.26,0,0,1-.85-1.44A5.62,5.62,0,0,1,58.29,12.38Z" transform="translate(0.18 0.18)"/>
    <path d="M67.85,13.49,65.2,7.93h1.68l1,2.26c.13.34.25.66.38,1s.26.64.4,1h.06c.14-.34.28-.67.42-1s.26-.63.39-1l1-2.26h1.64l-2.67,5.56v3.29H67.85Z" transform="translate(0.18 0.18)"/>
    <path d="M75.93,7.93h5.34V9.26H77.5v2.5h3.22v1.33H77.5v3.69H75.93Z" transform="translate(0.18 0.18)"/>
    <path d="M82.83,7.93h5.33V9.26H84.4v2.26h3.18v1.32H84.4v2.61h3.89v1.33H82.83Z" transform="translate(0.18 0.18)"/>
    <path d="M90.11,7.93h5.33V9.26H91.68v2.26h3.17v1.32H91.68v2.61h3.89v1.33H90.11Z" transform="translate(0.18 0.18)"/>
    <path d="M97.38,7.93h2.37A4.4,4.4,0,0,1,102.92,9a4.4,4.4,0,0,1,1.13,3.29,5.72,5.72,0,0,1-.29,1.93,3.57,3.57,0,0,1-.84,1.4,3.38,3.38,0,0,1-1.32.85,5.14,5.14,0,0,1-1.77.28H97.38Zm2.26,7.58a2.7,2.7,0,0,0,2.08-.78,3.45,3.45,0,0,0,.72-2.41,3.27,3.27,0,0,0-.73-2.37,2.73,2.73,0,0,0-2.07-.74H99v6.3Z" transform="translate(0.18 0.18)"/>
    <path d="M105.84,7.93h2.83a6.13,6.13,0,0,1,1.26.12,3.19,3.19,0,0,1,1,.36,1.7,1.7,0,0,1,.66.67,2.06,2.06,0,0,1,.24,1,2,2,0,0,1-.37,1.18,1.9,1.9,0,0,1-1.14.74v.06a2.47,2.47,0,0,1,1.46.68,1.94,1.94,0,0,1,.51,1.41,2.33,2.33,0,0,1-.26,1.15,2.13,2.13,0,0,1-.71.81,3,3,0,0,1-1.07.48,5.32,5.32,0,0,1-1.35.16h-3.06Zm2.69,3.67a2.12,2.12,0,0,0,1.35-.34,1.17,1.17,0,0,0,.41-1,1,1,0,0,0-.43-.88,2.52,2.52,0,0,0-1.3-.27h-1.15V11.6Zm.2,4a2.7,2.7,0,0,0,1.51-.36,1.28,1.28,0,0,0,.52-1.12,1.15,1.15,0,0,0-.51-1,2.83,2.83,0,0,0-1.52-.33h-1.32v2.84Z" transform="translate(0.18 0.18)"/>
    <path d="M118,14.39h-3l-.69,2.39h-1.6l2.89-8.85h1.84l2.88,8.85h-1.65Zm-.35-1.23-.32-1.09c-.14-.47-.28-1-.41-1.45s-.26-1-.38-1.47h-.06c-.12.5-.25,1-.38,1.48s-.26,1-.4,1.44l-.31,1.09Z" transform="translate(0.18 0.18)"/>
    <path d="M120.87,12.38a5.41,5.41,0,0,1,.32-1.94A4.28,4.28,0,0,1,122.06,9a3.69,3.69,0,0,1,1.3-.91A4,4,0,0,1,125,7.77a3.05,3.05,0,0,1,1.46.34,4,4,0,0,1,1.06.78l-.88,1a3,3,0,0,0-.72-.54,2,2,0,0,0-.9-.19,2.23,2.23,0,0,0-1,.22,2.4,2.4,0,0,0-.79.64,3,3,0,0,0-.51,1,4.67,4.67,0,0,0-.18,1.34,3.91,3.91,0,0,0,.65,2.38,2.13,2.13,0,0,0,1.78.86,2.28,2.28,0,0,0,1-.23,3.26,3.26,0,0,0,.82-.65l.88,1a4,4,0,0,1-1.24.95,3.49,3.49,0,0,1-1.52.33,4.17,4.17,0,0,1-1.59-.3,3.56,3.56,0,0,1-1.27-.87,4.26,4.26,0,0,1-.85-1.44A5.62,5.62,0,0,1,120.87,12.38Z" transform="translate(0.18 0.18)"/>
    <path d="M129.12,7.93h1.57v4h0l3.15-4h1.75l-2.72,3.45,3.18,5.4h-1.73L132,12.61l-1.27,1.59v2.58h-1.57Z" transform="translate(0.18 0.18)"/>
  </g>
  <g>
    <path d="M7.9,28.75H11a6.57,6.57,0,0,1,1.52.16,3,3,0,0,1,1.18.5,2.32,2.32,0,0,1,.75.91,3.74,3.74,0,0,1,0,2.79,2.59,2.59,0,0,1-.76,1,3.52,3.52,0,0,1-1.18.58,5.88,5.88,0,0,1-1.51.19H9.18v4H7.9Zm2.94,5a3.21,3.21,0,0,0,2-.5,1.9,1.9,0,0,0,.64-1.58,1.66,1.66,0,0,0-.65-1.51,3.54,3.54,0,0,0-2-.43H9.18v4Z" transform="translate(0.18 0.18)"/>
    <path d="M15.72,35.12A4.51,4.51,0,0,1,16,33.46a3.66,3.66,0,0,1,.76-1.24,3.18,3.18,0,0,1,1.1-.77,3.32,3.32,0,0,1,1.32-.27,3.23,3.23,0,0,1,1.31.27,3,3,0,0,1,1.1.77,3.68,3.68,0,0,1,.77,1.24,5.06,5.06,0,0,1,0,3.32A3.63,3.63,0,0,1,21.6,38a3.11,3.11,0,0,1-1.1.76,3.23,3.23,0,0,1-1.31.27,3.35,3.35,0,0,1-2.42-1A3.61,3.61,0,0,1,16,36.78,4.55,4.55,0,0,1,15.72,35.12Zm1.31,0a3.81,3.81,0,0,0,.16,1.17,2.85,2.85,0,0,0,.44.91,2,2,0,0,0,.68.58,1.95,1.95,0,0,0,1.76,0,2.09,2.09,0,0,0,.68-.58,2.85,2.85,0,0,0,.44-.91,4.15,4.15,0,0,0,.15-1.17A4.25,4.25,0,0,0,21.19,34a2.81,2.81,0,0,0-.44-.92,2.12,2.12,0,0,0-.68-.59,1.95,1.95,0,0,0-1.76,0,2,2,0,0,0-.68.59,2.81,2.81,0,0,0-.44.92A3.9,3.9,0,0,0,17,35.12Z" transform="translate(0.18 0.18)"/>
    <path d="M23.67,31.37H25l1.11,4.32c.08.36.16.71.23,1.05s.14.68.22,1h.06l.24-1c.09-.34.17-.69.27-1l1.15-4.32h1.23l1.17,4.32.27,1.05c.09.34.17.68.26,1h.06c.08-.35.15-.69.23-1s.15-.69.23-1.05l1.09-4.32H34l-2,7.48H30.44l-1.08-4c-.09-.36-.17-.71-.25-1.06s-.16-.71-.25-1.09h-.07c-.08.38-.16.74-.24,1.1s-.18.71-.28,1.07l-1.05,4H25.75Z" transform="translate(0.18 0.18)"/>
    <path d="M35,35.12a4.53,4.53,0,0,1,.28-1.65A3.76,3.76,0,0,1,36,32.23a3.24,3.24,0,0,1,1.07-.78,3,3,0,0,1,1.24-.27,3.16,3.16,0,0,1,1.27.25,2.37,2.37,0,0,1,.94.71,3.26,3.26,0,0,1,.58,1.11,5,5,0,0,1,.2,1.44,3.52,3.52,0,0,1-.05.7h-5A2.93,2.93,0,0,0,37,37.31a2.31,2.31,0,0,0,1.75.71,2.86,2.86,0,0,0,1-.16,3.92,3.92,0,0,0,.87-.43l.45.84A6.49,6.49,0,0,1,40,38.8a3.73,3.73,0,0,1-1.38.24,3.6,3.6,0,0,1-1.4-.27A3.33,3.33,0,0,1,36,38a3.5,3.5,0,0,1-.76-1.23A4.46,4.46,0,0,1,35,35.12Zm5.23-.56a2.83,2.83,0,0,0-.48-1.77,1.68,1.68,0,0,0-1.37-.61,1.83,1.83,0,0,0-.76.17,1.93,1.93,0,0,0-.65.46,2.33,2.33,0,0,0-.49.74,3.64,3.64,0,0,0-.25,1Z" transform="translate(0.18 0.18)"/>
    <path d="M43.19,31.37h1.05l.1,1.35h0a3.59,3.59,0,0,1,.93-1.12,1.9,1.9,0,0,1,1.19-.42,2,2,0,0,1,.8.16l-.24,1.11-.34-.1a2.06,2.06,0,0,0-.39,0,1.69,1.69,0,0,0-1,.39,3.06,3.06,0,0,0-.9,1.34v4.8H43.19Z" transform="translate(0.18 0.18)"/>
    <path d="M47.82,35.12a4.53,4.53,0,0,1,.29-1.65,3.91,3.91,0,0,1,.75-1.24,3.24,3.24,0,0,1,1.07-.78,3,3,0,0,1,1.25-.27,3.23,3.23,0,0,1,1.27.25,2.52,2.52,0,0,1,.94.71A3.24,3.24,0,0,1,54,33.25a5.54,5.54,0,0,1,.16,2.14h-5a2.94,2.94,0,0,0,.75,1.92,2.28,2.28,0,0,0,1.74.71,3,3,0,0,0,1-.16,4.07,4.07,0,0,0,.86-.43l.45.84a6.49,6.49,0,0,1-1.09.53,3.92,3.92,0,0,1-2.78,0A3.33,3.33,0,0,1,48.86,38a3.65,3.65,0,0,1-.76-1.23A4.46,4.46,0,0,1,47.82,35.12Zm5.24-.56a2.83,2.83,0,0,0-.49-1.77,1.66,1.66,0,0,0-1.36-.61,1.8,1.8,0,0,0-.76.17,2.07,2.07,0,0,0-.66.46,2.49,2.49,0,0,0-.48.74,3.32,3.32,0,0,0-.26,1Z" transform="translate(0.18 0.18)"/>
    <path d="M55.47,35.12a4.64,4.64,0,0,1,.27-1.63,3.75,3.75,0,0,1,.72-1.24,3.26,3.26,0,0,1,1-.79,2.91,2.91,0,0,1,1.23-.28,2.57,2.57,0,0,1,1.12.23,4.91,4.91,0,0,1,1,.64l-.06-1.28V27.89H62v11H61l-.1-.88h-.05a4.8,4.8,0,0,1-1,.75,2.57,2.57,0,0,1-1.24.32,2.77,2.77,0,0,1-2.26-1A4.44,4.44,0,0,1,55.47,35.12Zm1.31,0a3.58,3.58,0,0,0,.54,2.11,1.77,1.77,0,0,0,1.52.75,2,2,0,0,0,1-.25,3.38,3.38,0,0,0,.92-.78V33a3.22,3.22,0,0,0-.91-.61,2.61,2.61,0,0,0-.9-.17,1.86,1.86,0,0,0-.84.2,2.26,2.26,0,0,0-.69.59,2.93,2.93,0,0,0-.46.9A3.89,3.89,0,0,0,56.78,35.11Z" transform="translate(0.18 0.18)"/>
    <path d="M67.67,27.89h1.26v3l0,1.35a5.1,5.1,0,0,1,1.1-.75,2.79,2.79,0,0,1,1.24-.3,2.86,2.86,0,0,1,1.27.27,2.68,2.68,0,0,1,.94.77,3.5,3.5,0,0,1,.56,1.2,5.86,5.86,0,0,1,.2,1.57A5.38,5.38,0,0,1,74,36.7,4,4,0,0,1,73.24,38a3,3,0,0,1-1,.8A2.91,2.91,0,0,1,71,39a2.75,2.75,0,0,1-1.08-.24,3.71,3.71,0,0,1-1.06-.69h0l-.11.74h-1Zm1.26,9.3a3.17,3.17,0,0,0,1,.61,2.77,2.77,0,0,0,.86.17,1.87,1.87,0,0,0,.85-.2,2,2,0,0,0,.68-.59,2.88,2.88,0,0,0,.45-.93A4.8,4.8,0,0,0,72.9,35a5.52,5.52,0,0,0-.11-1.12,2.44,2.44,0,0,0-.35-.87,1.57,1.57,0,0,0-.61-.56,1.81,1.81,0,0,0-.9-.2,3.08,3.08,0,0,0-2,1Z" transform="translate(0.18 0.18)"/>
    <path d="M75.92,41a1,1,0,0,0,.29,0,1.35,1.35,0,0,0,1.05-.45,3.13,3.13,0,0,0,.64-1.15l.17-.55-3-7.5h1.31l1.52,4.14c.11.33.24.67.36,1s.25.72.37,1.07h.06c.11-.34.22-.69.32-1.06s.21-.72.31-1.05l1.34-4.14h1.23l-2.82,8.1a8.86,8.86,0,0,1-.44,1,3.38,3.38,0,0,1-.59.82,2.78,2.78,0,0,1-.77.55,2.41,2.41,0,0,1-1,.2,3.58,3.58,0,0,1-.48,0,1.85,1.85,0,0,1-.4-.12l.25-1Z" transform="translate(0.18 0.18)"/>
    <path d="M88.45,30.29H85.54V28.78h7.6v1.51H90.23v8.56H88.45Z" transform="translate(0.18 0.18)"/>
    <path d="M100.32,38.85l-2.17-3.94H96.61v3.94H94.82V28.78h3.4a6.25,6.25,0,0,1,1.47.16,3.26,3.26,0,0,1,1.17.5,2.45,2.45,0,0,1,.77.91,3.18,3.18,0,0,1,.29,1.42,2.92,2.92,0,0,1-.55,1.86,3.05,3.05,0,0,1-1.45,1l2.4,4.2Zm-3.71-5.36H98a2.5,2.5,0,0,0,1.58-.43,1.55,1.55,0,0,0,.54-1.29,1.33,1.33,0,0,0-.54-1.22A3.09,3.09,0,0,0,98,30.21H96.61Z" transform="translate(0.18 0.18)"/>
    <path d="M104,28.78h1.78v5.79a5.44,5.44,0,0,0,.15,1.38,2.5,2.5,0,0,0,.41.9,1.47,1.47,0,0,0,.64.48,2.23,2.23,0,0,0,.83.15,2.34,2.34,0,0,0,.85-.15,1.41,1.41,0,0,0,.66-.48,2.36,2.36,0,0,0,.43-.9,5,5,0,0,0,.16-1.38V28.78h1.71v5.65a7.24,7.24,0,0,1-.27,2.12,3.51,3.51,0,0,1-.76,1.42,2.91,2.91,0,0,1-1.2.81,4.59,4.59,0,0,1-1.58.26,4.53,4.53,0,0,1-1.57-.26A2.91,2.91,0,0,1,105,38a3.65,3.65,0,0,1-.77-1.42,7.24,7.24,0,0,1-.27-2.12Z" transform="translate(0.18 0.18)"/>
    <path d="M114.33,36.34a4.27,4.27,0,0,0,1.23.82,3.31,3.31,0,0,0,1.38.32,2.11,2.11,0,0,0,1.31-.35,1.14,1.14,0,0,0,.45-.94,1.09,1.09,0,0,0-.12-.53,1,1,0,0,0-.32-.37,2.55,2.55,0,0,0-.49-.3,6.24,6.24,0,0,0-.63-.28l-1.38-.6a4,4,0,0,1-.73-.39,3.11,3.11,0,0,1-.66-.55,2.88,2.88,0,0,1-.47-.75,2.78,2.78,0,0,1-.17-1,2.52,2.52,0,0,1,.25-1.12,2.88,2.88,0,0,1,.7-.9,3.46,3.46,0,0,1,1.07-.6,4.26,4.26,0,0,1,1.36-.21,4.34,4.34,0,0,1,1.7.34,4.57,4.57,0,0,1,1.4.93L119.3,31a5,5,0,0,0-1-.63,2.94,2.94,0,0,0-1.17-.23,1.91,1.91,0,0,0-1.15.32,1,1,0,0,0-.43.87.91.91,0,0,0,.13.5,1.36,1.36,0,0,0,.35.37,2.83,2.83,0,0,0,.52.29c.19.09.39.17.6.25l1.37.57a5.14,5.14,0,0,1,.81.43,3.22,3.22,0,0,1,.64.57,2.77,2.77,0,0,1,.43.75,2.93,2.93,0,0,1,.15,1,2.65,2.65,0,0,1-.25,1.15,2.73,2.73,0,0,1-.71.95,3.61,3.61,0,0,1-1.14.65,4.49,4.49,0,0,1-1.52.24,5.11,5.11,0,0,1-2-.39,5.19,5.19,0,0,1-1.67-1.09Z" transform="translate(0.18 0.18)"/>
    <path d="M124.09,30.29h-2.91V28.78h7.6v1.51h-2.91v8.56h-1.78Z" transform="translate(0.18 0.18)"/>
    <path d="M128.72,35.08a4.55,4.55,0,0,1,.29-1.66,3.91,3.91,0,0,1,.78-1.25,3.51,3.51,0,0,1,1.12-.79,3.25,3.25,0,0,1,1.29-.27,3.19,3.19,0,0,1,1.35.26,2.58,2.58,0,0,1,1,.74,3.25,3.25,0,0,1,.59,1.14,4.73,4.73,0,0,1,.2,1.44,3.81,3.81,0,0,1-.07.84h-4.81a2.51,2.51,0,0,0,.72,1.58,2.12,2.12,0,0,0,1.52.55,2.71,2.71,0,0,0,.91-.14,3.83,3.83,0,0,0,.84-.41l.6,1.11a5.13,5.13,0,0,1-1.2.58,4,4,0,0,1-1.38.24,3.92,3.92,0,0,1-1.47-.27A3.47,3.47,0,0,1,129.8,38a3.54,3.54,0,0,1-.8-1.24A4.57,4.57,0,0,1,128.72,35.08Zm5.07-.68a2.32,2.32,0,0,0-.38-1.41,1.35,1.35,0,0,0-1.16-.51,1.67,1.67,0,0,0-1.19.48,2.35,2.35,0,0,0-.63,1.44Z" transform="translate(0.18 0.18)"/>
  </g>
</svg>
